<svg width="16" height="16" viewBox="0 0 16 16" fill="none" xmlns="http://www.w3.org/2000/svg">
<rect width="16" height="16" rx="4" fill="#EAEEFF"/>
<path d="M5.386 13V4.208H8.214C9.18 4.208 9.91733 4.453 10.426 4.943C10.9393 5.42833 11.196 6.08867 11.196 6.924C11.196 7.75 10.9393 8.40567 10.426 8.891C9.91733 9.37167 9.18 9.612 8.214 9.612H6.492V13H5.386ZM6.492 8.66H8.214C8.82533 8.66 9.28733 8.50367 9.6 8.191C9.91733 7.87833 10.076 7.456 10.076 6.924C10.076 6.38267 9.91733 5.951 9.6 5.629C9.28733 5.307 8.82533 5.146 8.214 5.146H6.492V8.66Z" fill="#131A27"/>
</svg>
